<svg xmlns="http://www.w3.org/2000/svg" viewBox="0 0 160 160" role="img" aria-label="Svetlana debug winner">
  <defs>
	<linearGradient id="bg" x1="0" y1="0" x2="1" y2="1">
	  <stop offset="0%" stop-color="#2ded72"/>
	  <stop offset="100%" stop-color="#00b84f"/>
	</linearGradient>
  </defs>
  <rect width="160" height="160" rx="80" fill="url(#bg)"/>
  <circle cx="80" cy="60" r="27" fill="#f0c5b5"/>
  <path d="M45 136c8-30 21-43 35-43 15 0 28 13 35 43" fill="#111318"/>
  <path d="M50 63c0-27 12-45 30-45 17 0 30 18 30 45-9-11-18-16-30-16-13 0-22 5-30 16Z" fill="#101116"/>
  <circle cx="68" cy="59" r="4" fill="#2a2d33"/>
  <circle cx="92" cy="59" r="4" fill="#2a2d33"/>
  <path d="M68 76c6 5 18 5 24 0" fill="none" stroke="#b66367" stroke-width="4" stroke-linecap="round"/>
</svg>

